# xmcd CD database file
#
# Track frame offsets:
#	150
#	20817
#	48648
#	63149
#	79394
#	100223
#	128117
#	145721
#	169824
#	188155
#	210062
#	233575
#	250168
#	277094
#
# Disc length: 3988 seconds
#
# Revision: 0
# Processed by: cddbd v1.5.1PL2 Copyright (c) Steve Scherf et al.
# Submitted via: ACXtractor (MTCDDB.DLL V2003.12.21)
#
DISCID=c00f920e
DTITLE=Barrelhouse - Peach
DYEAR=1996
DGENRE=Blues
TTITLE0=Down with your scene
TTITLE1=I do it good
TTITLE2=Nothing happened
TTITLE3=As angels do
TTITLE4=Nothing lasts forever
TTITLE5=That was yesterday
TTITLE6=My days alone
TTITLE7=Naked
TTITLE8=Untitled
TTITLE9=She don't need you
TTITLE10=Three
TTITLE11=Tell me
TTITLE12=Wither
TTITLE13=Song for no one
EXTD=ID3G:   0 YEAR: 1996
EXTT0=
EXTT1=
EXTT2=
EXTT3=
EXTT4=
EXTT5=
EXTT6=
EXTT7=
EXTT8=
EXTT9=
EXTT10=
EXTT11=
EXTT12=
EXTT13=
PLAYORDER=
